<svg width="300" height="90" viewBox="0 0 300 90" fill="none" xmlns="http://www.w3.org/2000/svg">
<rect x="0.280762" y="0.0393066" width="299.384" height="89.0728" rx="6.59799" fill="#121212"/>
<rect x="0.693136" y="0.451681" width="298.559" height="88.2481" rx="6.18561" stroke="url(#paint0_linear_0_167)" stroke-opacity="0.29" stroke-width="0.824748"/>
<g clip-path="url(#clip0_0_167)">
<g clip-path="url(#clip1_0_167)">
<path d="M48.1292 19.2004H81.2636C86.2873 19.2004 90.3489 23.2621 90.3489 28.2857V60.1376C90.3489 65.1612 86.2873 69.2228 81.2636 69.2228H48.1292C43.1056 69.2228 39.0439 65.1612 39.0439 60.1376V28.2857C39.0439 23.2621 43.1056 19.2004 48.1292 19.2004Z" fill="#001E36"/>
<path d="M50.5845 54.2799V32.2828C50.5845 32.1332 50.6486 32.0476 50.7982 32.0476C51.1616 32.0476 51.5037 32.0476 51.9954 32.0263C52.5084 32.0049 53.0429 32.0049 53.62 31.9836C54.1972 31.9622 54.8171 31.9622 55.4798 31.9408C56.1426 31.9194 56.7838 31.9194 57.4251 31.9194C59.1781 31.9194 60.6317 32.1332 61.8288 32.5821C62.8977 32.9456 63.881 33.5441 64.6933 34.3351C65.3774 35.0191 65.9118 35.8527 66.2539 36.7721C66.5745 37.6699 66.7456 38.5891 66.7456 39.551C66.7456 41.3894 66.318 42.9072 65.4629 44.1043C64.6078 45.3015 63.4107 46.1993 62.0212 46.7123C60.5675 47.2468 58.9643 47.4391 57.2113 47.4391C56.6983 47.4391 56.3563 47.4391 56.1426 47.4178C55.9288 47.3964 55.6295 47.3964 55.2232 47.3964V54.2585C55.2446 54.4081 55.1378 54.5364 54.9881 54.5578C54.9668 54.5578 54.9454 54.5578 54.9027 54.5578H50.841C50.67 54.5578 50.5845 54.4722 50.5845 54.2799ZM55.2446 36.1734V43.3561C55.5439 43.3775 55.8219 43.3989 56.0784 43.3989H57.2113C58.0451 43.3989 58.8787 43.2707 59.6697 43.0142C60.3538 42.8217 60.9524 42.4155 61.4227 41.8811C61.8716 41.3468 62.0854 40.6199 62.0854 39.6792C62.1067 39.0166 61.9358 38.3539 61.5937 37.7767C61.2302 37.221 60.7173 36.7933 60.0972 36.5582C59.3063 36.2376 58.4512 36.1093 57.5748 36.1307C57.019 36.1307 56.5273 36.1307 56.1212 36.1521C55.6937 36.1307 55.3943 36.1521 55.2446 36.1734Z" fill="#31A8FF"/>
<path d="M80.0854 42.0518C79.4441 41.7099 78.76 41.4747 78.0332 41.325C77.2423 41.154 76.4513 41.0471 75.6389 41.0471C75.2114 41.0257 74.7625 41.0898 74.3564 41.1968C74.0785 41.2608 73.8433 41.4105 73.6936 41.6243C73.5868 41.7953 73.5226 42.009 73.5226 42.2015C73.5226 42.3939 73.6082 42.5863 73.7364 42.7573C73.9288 42.9924 74.1853 43.1848 74.4632 43.3345C74.9549 43.591 75.468 43.8262 75.981 44.0399C77.1354 44.4247 78.2469 44.9591 79.2731 45.6004C79.9785 46.0494 80.5557 46.6479 80.9619 47.3747C81.3039 48.0588 81.4749 48.807 81.4535 49.5766C81.4749 50.5813 81.1756 51.586 80.6199 52.4197C80.0213 53.2747 79.1876 53.9375 78.2257 54.3223C77.1781 54.7712 75.8955 55.0063 74.3564 55.0063C73.373 55.0063 72.4111 54.9209 71.4491 54.7284C70.7009 54.6002 69.9527 54.365 69.2686 54.0444C69.1189 53.9589 69.0121 53.8092 69.0335 53.6382V49.9186C69.0335 49.8545 69.0549 49.769 69.1189 49.7262C69.1831 49.6834 69.2472 49.7048 69.3114 49.7476C70.1451 50.2392 71.0216 50.5813 71.9622 50.7951C72.7744 51.0088 73.6296 51.1157 74.4846 51.1157C75.297 51.1157 75.8741 51.0088 76.259 50.8165C76.6009 50.6668 76.8361 50.3034 76.8361 49.9186C76.8361 49.6194 76.6651 49.3414 76.323 49.0635C75.981 48.7856 75.2756 48.4649 74.2281 48.0588C73.1379 47.674 72.1332 47.161 71.1926 46.5197C70.5299 46.0494 69.9741 45.4294 69.5679 44.7026C69.2259 44.0185 69.0549 43.2703 69.0763 42.5221C69.0763 41.6029 69.3328 40.7265 69.8031 39.9355C70.3374 39.0805 71.1284 38.3963 72.0476 37.9688C73.0523 37.4557 74.3136 37.2206 75.8314 37.2206C76.7079 37.2206 77.6057 37.2847 78.4821 37.413C79.1235 37.4985 79.7434 37.6695 80.3206 37.9046C80.406 37.926 80.4916 38.0116 80.5343 38.0971C80.5557 38.1826 80.5771 38.2681 80.5771 38.3537V41.8381C80.5771 41.9236 80.5343 42.009 80.4702 42.0518C80.2778 42.0946 80.1709 42.0946 80.0854 42.0518Z" fill="#31A8FF"/>
</g>
</g>
<path d="M113.228 31.3849C116.005 31.3849 117.741 32.8249 117.741 35.1557C117.741 37.4715 116.005 38.9116 113.228 38.9116H111.135V41.7767H108.73V31.3849H113.228ZM113.095 36.952C114.564 36.952 115.307 36.2839 115.307 35.1557C115.307 34.0126 114.564 33.3445 113.095 33.3445H111.135V36.952H113.095ZM126.584 31.3849H128.989V41.7767H126.584V37.5161H121.863V41.7767H119.458V31.3849H121.863V35.4823H126.584V31.3849ZM136.48 41.9549C133.2 41.9549 130.795 39.6687 130.795 36.5808C130.795 33.493 133.2 31.2068 136.48 31.2068C139.746 31.2068 142.166 33.4781 142.166 36.5808C142.166 39.6835 139.746 41.9549 136.48 41.9549ZM136.48 39.9062C138.336 39.9062 139.732 38.5553 139.732 36.5808C139.732 34.6064 138.336 33.2554 136.48 33.2554C134.625 33.2554 133.229 34.6064 133.229 36.5808C133.229 38.5553 134.625 39.9062 136.48 39.9062ZM145.981 41.7767V33.3445H142.656V31.3849H151.712V33.3445H148.386V41.7767H145.981ZM157.893 41.9549C154.612 41.9549 152.208 39.6687 152.208 36.5808C152.208 33.493 154.612 31.2068 157.893 31.2068C161.159 31.2068 163.579 33.4781 163.579 36.5808C163.579 39.6835 161.159 41.9549 157.893 41.9549ZM157.893 39.9062C159.749 39.9062 161.144 38.5553 161.144 36.5808C161.144 34.6064 159.749 33.2554 157.893 33.2554C156.038 33.2554 154.642 34.6064 154.642 36.5808C154.642 38.5553 156.038 39.9062 157.893 39.9062ZM169.885 31.3849C172.661 31.3849 174.398 32.8249 174.398 35.1557C174.398 37.4715 172.661 38.9116 169.885 38.9116H167.792V41.7767H165.387V31.3849H169.885ZM169.751 36.952C171.221 36.952 171.963 36.2839 171.963 35.1557C171.963 34.0126 171.221 33.3445 169.751 33.3445H167.792V36.952H169.751ZM183.241 31.3849H185.646V41.7767H183.241V37.5161H178.52V41.7767H176.115V31.3849H178.52V35.4823H183.241V31.3849ZM193.137 41.9549C189.856 41.9549 187.451 39.6687 187.451 36.5808C187.451 33.493 189.856 31.2068 193.137 31.2068C196.403 31.2068 198.823 33.4781 198.823 36.5808C198.823 39.6835 196.403 41.9549 193.137 41.9549ZM193.137 39.9062C194.992 39.9062 196.388 38.5553 196.388 36.5808C196.388 34.6064 194.992 33.2554 193.137 33.2554C191.281 33.2554 189.886 34.6064 189.886 36.5808C189.886 38.5553 191.281 39.9062 193.137 39.9062ZM205.128 31.3849C207.904 31.3849 209.641 32.8249 209.641 35.1557C209.641 37.4715 207.904 38.9116 205.128 38.9116H203.035V41.7767H200.63V31.3849H205.128ZM204.995 36.952C206.464 36.952 207.207 36.2839 207.207 35.1557C207.207 34.0126 206.464 33.3445 204.995 33.3445H203.035V36.952H204.995Z" fill="white" style="mix-blend-mode:exclusion"/>
<path opacity="0.6" d="M115.099 52.5846C116.141 52.8749 116.828 53.6535 116.828 54.8807C116.828 56.4642 115.627 57.3748 113.291 57.3748H108.884V48.1376H113.027C115.152 48.1376 116.339 49.0349 116.339 50.526C116.339 51.5289 115.825 52.2283 115.099 52.5846ZM112.908 49.2064H110.203V52.1623H112.908C114.254 52.1623 115.02 51.6609 115.02 50.6844C115.02 49.7079 114.254 49.2064 112.908 49.2064ZM113.238 56.3059C114.703 56.3059 115.495 55.844 115.495 54.7751C115.495 53.7063 114.703 53.2312 113.238 53.2312H110.203V56.3059H113.238ZM118.871 57.3748V48.1376H120.19V56.2267H125.192V57.3748H118.871ZM128.026 56.2267H133.409V57.3748H126.706V48.1376H133.225V49.2856H128.026V52.1228H132.657V53.2444H128.026V56.2267ZM136.866 56.2267H142.25V57.3748H135.546V48.1376H142.065V49.2856H136.866V52.1228H141.498V53.2444H136.866V56.2267ZM144.386 57.3748V48.1376H148.279C151.248 48.1376 153.267 50.0114 153.267 52.7562C153.267 55.5009 151.248 57.3748 148.279 57.3748H144.386ZM145.706 56.2267H148.2C150.483 56.2267 151.948 54.8279 151.948 52.7562C151.948 50.6844 150.483 49.2856 148.2 49.2856H145.706V56.2267ZM165.048 52.5846C166.09 52.8749 166.776 53.6535 166.776 54.8807C166.776 56.4642 165.576 57.3748 163.24 57.3748H158.832V48.1376H162.976C165.101 48.1376 166.288 49.0349 166.288 50.526C166.288 51.5289 165.774 52.2283 165.048 52.5846ZM162.857 49.2064H160.152V52.1623H162.857C164.203 52.1623 164.969 51.6609 164.969 50.6844C164.969 49.7079 164.203 49.2064 162.857 49.2064ZM163.187 56.3059C164.652 56.3059 165.444 55.844 165.444 54.7751C165.444 53.7063 164.652 53.2312 163.187 53.2312H160.152V56.3059H163.187ZM170.139 56.2267H175.523V57.3748H168.82V48.1376H175.338V49.2856H170.139V52.1228H174.771V53.2444H170.139V56.2267ZM193.001 48.1376H194.255L191.167 57.3748H189.781L187.261 49.9982L184.74 57.3748H183.328L180.24 48.1376H181.6L184.094 55.6461L186.693 48.1376H187.907L190.454 55.6857L193.001 48.1376ZM199.936 57.4803C197.099 57.4803 195.014 55.4613 195.014 52.7562C195.014 50.051 197.099 48.032 199.936 48.032C202.746 48.032 204.831 50.0378 204.831 52.7562C204.831 55.4745 202.746 57.4803 199.936 57.4803ZM199.936 56.3059C201.981 56.3059 203.512 54.8015 203.512 52.7562C203.512 50.7108 201.981 49.2064 199.936 49.2064C197.864 49.2064 196.333 50.7108 196.333 52.7562C196.333 54.8015 197.864 56.3059 199.936 56.3059ZM214.462 57.3748H213.024L211.031 54.5376C210.847 54.5508 210.649 54.564 210.451 54.564H208.168V57.3748H206.848V48.1376H210.451C212.852 48.1376 214.304 49.3516 214.304 51.3574C214.304 52.7826 213.565 53.8118 212.272 54.2737L214.462 57.3748ZM210.411 53.4424C212.1 53.4424 212.984 52.677 212.984 51.3574C212.984 50.0378 212.1 49.2856 210.411 49.2856H208.168V53.4424H210.411ZM222.981 57.3748L219.445 53.2708L217.756 54.9863V57.3748H216.436V48.1376H217.756V53.2972L222.77 48.1376H224.274L220.329 52.2943L224.525 57.3748H222.981ZM225.921 57.3748V48.1376H227.24V57.3748H225.921ZM236.63 48.1376H237.95V57.3748H236.868L231.325 50.4865V57.3748H230.006V48.1376H231.088L236.63 55.0259V48.1376ZM247.115 55.7121V52.7034H248.381V56.3059C247.458 57.0844 246.178 57.4803 244.884 57.4803C242.047 57.4803 239.962 55.4877 239.962 52.7562C239.962 50.0246 242.047 48.032 244.911 48.032C246.376 48.032 247.616 48.5203 248.461 49.4572L247.642 50.2753C246.877 49.5363 246.006 49.2064 244.964 49.2064C242.826 49.2064 241.282 50.6976 241.282 52.7562C241.282 54.7883 242.826 56.3059 244.95 56.3059C245.729 56.3059 246.455 56.1343 247.115 55.7121Z" fill="white"/>
<defs>
<linearGradient id="paint0_linear_0_167" x1="299.879" y1="50.0133" x2="0.28076" y2="50.0133" gradientUnits="userSpaceOnUse">
<stop stop-color="#C2C2C2" stop-opacity="0.9"/>
<stop offset="0.474" stop-color="#919191" stop-opacity="0"/>
<stop offset="1" stop-color="#C2C2C2" stop-opacity="0.9"/>
</linearGradient>
<clipPath id="clip0_0_167">
<rect width="51.1344" height="51.1344" fill="white" transform="translate(39.8687 19.0085)"/>
</clipPath>
<clipPath id="clip1_0_167">
<rect width="51.9591" height="50.7508" fill="white" transform="translate(39.0439 19.2003)"/>
</clipPath>
</defs>
</svg>
