<svg xmlns="http://www.w3.org/2000/svg" width="11" height="12" viewBox="0 0 11 12" fill="none">
<g clip-path="url(#clip0_0_199)">
<path d="M10.5192 7.43972C10.4333 7.52564 10.3167 7.57391 10.1952 7.57391C10.0736 7.57391 9.95708 7.52564 9.87113 7.43972L4.87897 2.42601C4.66617 2.21318 4.41353 2.04435 4.13549 1.92916C3.85744 1.81396 3.55943 1.75466 3.25846 1.75464C2.65064 1.7546 2.06769 1.99601 1.63786 2.42578C1.20804 2.85555 0.966538 3.43846 0.966495 4.04629C0.966452 4.65411 1.20787 5.23706 1.63764 5.66688L6.47259 10.5216C6.73113 10.776 7.07974 10.9179 7.44247 10.9165C7.8052 10.9151 8.15267 10.7704 8.40919 10.5139C8.66571 10.2574 8.8105 9.91 8.81202 9.54727C8.81354 9.18454 8.67167 8.8359 8.4173 8.5773L3.58234 3.72264C3.49515 3.6391 3.37906 3.59247 3.2583 3.59247C3.13755 3.59247 3.02146 3.6391 2.93426 3.72264C2.84834 3.80859 2.80007 3.92514 2.80007 4.04668C2.80007 4.16821 2.84834 4.28477 2.93426 4.37072L7.23893 8.69509C7.32242 8.78154 7.36861 8.89731 7.36757 9.01749C7.36652 9.13766 7.31832 9.25261 7.23334 9.33759C7.14837 9.42257 7.03341 9.47077 6.91324 9.47182C6.79306 9.47286 6.67729 9.42667 6.59084 9.34318L2.28618 5.0188C2.15847 4.89112 2.05717 4.73953 1.98805 4.57269C1.91894 4.40585 1.88337 4.22704 1.88337 4.04645C1.88337 3.86586 1.91894 3.68704 1.98805 3.5202C2.05717 3.35337 2.15847 3.20178 2.28618 3.07409C2.54817 2.82409 2.89639 2.6846 3.25853 2.6846C3.62067 2.6846 3.96889 2.82409 4.23089 3.07409L9.06538 7.92922C9.48613 8.36083 9.7199 8.94083 9.71603 9.54357C9.71217 10.1463 9.471 10.7233 9.04475 11.1495C8.61851 11.5756 8.04152 11.8167 7.43877 11.8205C6.83603 11.8243 6.25606 11.5904 5.82451 11.1696L0.989552 6.31497C0.387842 5.71326 0.0498047 4.89716 0.0498047 4.04622C0.0498047 3.19527 0.387842 2.37918 0.989552 1.77747C1.59126 1.17576 2.40736 0.837722 3.2583 0.837722C4.10925 0.837722 4.92534 1.17576 5.52705 1.77747L10.5192 6.7898C10.562 6.83239 10.596 6.88303 10.6192 6.9388C10.6424 6.99456 10.6543 7.05436 10.6543 7.11476C10.6543 7.17516 10.6424 7.23496 10.6192 7.29072C10.596 7.34649 10.562 7.39713 10.5192 7.43972Z" fill="white"/>
</g>
<defs>
<clipPath id="clip0_0_199">
<rect width="11" height="11" fill="white" transform="matrix(1 0 0 -1 0 11.8401)"/>
</clipPath>
</defs>
</svg>