<svg xmlns="http://www.w3.org/2000/svg" width="15" height="15" viewBox="0 0 15 15" fill="none">
<path fill-rule="evenodd" clip-rule="evenodd" d="M7.5 0.840088C3.35955 0.840088 0 3.97566 0 7.84009C0 11.7045 3.35955 14.8401 7.5 14.8401C11.6323 14.8401 15 11.7045 15 7.84009C15 3.97566 11.6323 0.840088 7.5 0.840088ZM12.4539 4.06677C13.3487 5.08412 13.8856 6.38238 13.9019 7.78693C13.6904 7.749 11.5754 7.34659 9.44414 7.59714C9.39534 7.49844 9.35466 7.39213 9.30586 7.28586C9.17569 6.99738 9.0293 6.70128 8.88286 6.42036C11.2418 5.52449 12.3156 4.2338 12.4539 4.06677ZM7.5 1.87263C9.12689 1.87263 10.6155 2.44204 11.7462 3.37588C11.6323 3.52772 10.6643 4.73488 8.38664 5.53206C7.3373 3.73271 6.17409 2.25983 5.99513 2.03206C6.47503 1.92577 6.97941 1.87263 7.5 1.87263ZM4.77497 2.43445C4.94578 2.64703 6.08461 4.12751 7.15022 5.88888C4.15673 6.63294 1.51302 6.61776 1.22831 6.61776C1.64317 4.76525 2.98536 3.22403 4.77497 2.43445ZM1.09002 7.8477C1.09002 7.78693 1.09002 7.72621 1.09002 7.66548C1.36659 7.67305 4.47397 7.71103 7.67081 6.81516C7.85794 7.14919 8.02875 7.49083 8.19145 7.83248C8.11008 7.85527 8.02059 7.87806 7.93927 7.90081C4.63666 8.89538 2.87961 11.6134 2.73319 11.8412C1.71638 10.7859 1.09002 9.38131 1.09002 7.8477ZM7.5 13.8227C6.0195 13.8227 4.65293 13.352 3.57104 12.5624C3.68492 12.3423 4.98642 10.0039 8.59814 8.82709C8.61441 8.81948 8.62256 8.81948 8.63883 8.81191C9.54173 10.9908 9.90783 12.8205 10.0054 13.3444C9.23264 13.6557 8.38664 13.8227 7.5 13.8227ZM11.071 12.7978C11.006 12.4334 10.6643 10.6872 9.82645 8.53856C11.8357 8.24246 13.5927 8.72839 13.8124 8.79673C13.5358 10.4594 12.5108 11.8943 11.071 12.7978Z" fill="black"/>
</svg>