<svg width="23" height="23" viewBox="0 0 23 23" fill="none" xmlns="http://www.w3.org/2000/svg">
<g clip-path="url(#clip0_0_215)">
<path d="M20.876 0.840088H2.12403C1.69331 0.840088 1.28023 1.01119 0.975667 1.31575C0.671103 1.62032 0.5 2.0334 0.5 2.46412V21.2161C0.5 21.6468 0.671103 22.0599 0.975667 22.3644C1.28023 22.669 1.69331 22.8401 2.12403 22.8401H20.876C21.3067 22.8401 21.7198 22.669 22.0243 22.3644C22.3289 22.0599 22.5 21.6468 22.5 21.2161V2.46412C22.5 2.0334 22.3289 1.62032 22.0243 1.31575C21.7198 1.01119 21.3067 0.840088 20.876 0.840088ZM7.05722 19.5813H3.74958V9.07481H7.05722V19.5813ZM5.40111 7.61884C5.02592 7.61673 4.65976 7.50352 4.34884 7.2935C4.03792 7.08349 3.79619 6.78607 3.65414 6.4388C3.51209 6.09153 3.47609 5.70996 3.5507 5.34225C3.6253 4.97455 3.80715 4.63717 4.07331 4.37272C4.33947 4.10827 4.678 3.92858 5.04618 3.85634C5.41436 3.7841 5.79569 3.82255 6.14204 3.96682C6.48839 4.1111 6.78424 4.35474 6.99226 4.667C7.20027 4.97926 7.31113 5.34614 7.31083 5.72134C7.31437 5.97254 7.2673 6.22187 7.17243 6.45449C7.07755 6.68711 6.93682 6.89825 6.75861 7.07532C6.5804 7.25239 6.36836 7.39176 6.13514 7.48514C5.90192 7.57852 5.65228 7.62399 5.40111 7.61884ZM19.2489 19.5905H15.9428V13.8506C15.9428 12.1579 15.2232 11.6354 14.2943 11.6354C13.3135 11.6354 12.351 12.3748 12.351 13.8934V19.5905H9.04333V9.08245H12.2242V10.5384H12.2669C12.5863 9.89217 13.7046 8.78759 15.4111 8.78759C17.2567 8.78759 19.2504 9.88301 19.2504 13.0913L19.2489 19.5905Z" fill="white"/>
</g>
<defs>
<clipPath id="clip0_0_215">
<rect width="22" height="22" fill="white" transform="translate(0.5 0.840088)"/>
</clipPath>
</defs>
</svg>
