<svg width="196" height="31" viewBox="0 0 196 31" fill="none" xmlns="http://www.w3.org/2000/svg">
<g clip-path="url(#clip0_0_107)">
<path d="M106.183 0.467773H117.687V14.6823H104.559L98.4262 6.29573V14.6823H93.1465V0.467773H100.051L106.183 8.85435V0.467773Z" fill="white"/>
<path d="M135.023 4.52907H125.276V5.84899H135.023V9.30109H125.276V10.621H135.023V14.6823H117.201V0.467773H135.023V4.52907Z" fill="#4BFFA5"/>
<path d="M54.2496 22.4313C55.4883 23.3247 56.3818 24.6244 56.3818 26.1677C56.3818 28.5029 54.9806 30.3711 51.7519 30.3711H38.7557V16.1566H51.1427C54.3714 16.1566 55.3664 17.6186 55.3664 19.7711C55.3664 20.6849 54.94 21.619 54.2496 22.4313ZM44.0354 19.6087V21.152H48.909C49.4369 21.152 50.0868 21.152 50.0868 20.3803C50.0868 19.6087 49.4369 19.6087 48.909 19.6087H44.0354ZM49.9243 26.5129C50.4523 26.5129 51.1021 26.5129 51.1021 25.7615C51.1021 25.0102 50.4523 25.0102 49.9243 25.0102H44.0354V26.5129H49.9243ZM65.335 30.5742C59.0806 30.5742 56.4002 28.1983 56.4002 23.2435C56.4002 18.309 59.0806 15.9535 65.335 15.9535C71.5691 15.9535 74.2699 18.3294 74.2699 23.2435C74.2699 28.178 71.5691 30.5742 65.335 30.5742ZM65.335 26.1067C68.4419 26.1067 68.9902 24.7462 68.9902 23.2435C68.9902 21.7611 68.4622 20.4209 65.335 20.4209C62.2078 20.4209 61.6798 21.7408 61.6798 23.2435C61.6798 24.7665 62.2281 26.1067 65.335 26.1067ZM92.7567 23.2435C92.7567 28.178 90.0559 30.5742 83.8218 30.5742C77.5674 30.5742 74.887 28.1983 74.887 23.2435V16.1566H80.1667V23.2435C80.1667 24.7665 80.7149 26.1067 83.8218 26.1067C86.9287 26.1067 87.477 24.7462 87.477 23.2435V16.1566H92.7567V23.2435ZM110.625 16.1566V23.2435C110.625 28.178 107.924 30.5742 102.096 30.5742C96.2478 30.5742 93.5674 28.1983 93.5674 23.2435H98.847C98.847 24.7665 99.3953 26.1067 102.096 26.1067C104.797 26.1067 105.345 24.7462 105.345 23.2435V20.624H100.736V16.1566H110.625ZM123.216 30.3711L122.241 27.8125H116.19L115.215 30.3711H109.407L115.296 16.1566H123.134L129.023 30.3711H123.216ZM117.57 24.1573H120.86L119.215 19.8117L117.57 24.1573ZM134.72 25.9037H144.061V30.3711H129.441V16.1566H134.72V25.9037ZM149.95 25.9037H159.291V30.3711H144.671V16.1566H149.95V25.9037ZM173.506 30.3711L172.531 27.8125H166.48L165.505 30.3711H159.697L165.586 16.1566H173.425L179.313 30.3711H173.506ZM167.861 24.1573H171.15L169.505 19.8117L167.861 24.1573Z" fill="white"/>
<path d="M22.5787 9.79728L15.3495 0.253242H21.4415L25.2185 5.53292L28.9955 0.253242H35.0874L27.8583 9.79728V14.4678H22.5787V9.79728ZM44.2292 14.4678L43.2545 11.9092H37.2031L36.2284 14.4678H30.4208L36.3096 0.253242H44.1479L50.0368 14.4678H44.2292ZM38.584 8.25399H41.8736L40.2288 3.90841L38.584 8.25399ZM49.0218 9.45207H54.3015C54.3015 10.1425 54.9513 10.6095 58.3019 10.6095C61.4291 10.6095 61.8961 10.4065 61.8961 9.87851C61.8961 9.26932 61.4291 9.18809 58.0988 9.08656C51.682 8.88349 49.2249 7.82756 49.2249 4.5176C49.2249 1.3904 52.2911 0.050177 57.8957 0.050177C63.4394 0.050177 66.5666 1.3904 66.5666 5.02526H61.2869C61.2869 4.27392 60.0685 4.11147 57.4896 4.11147C55.0122 4.11147 54.5046 4.23331 54.5046 4.78159C54.5046 5.32986 55.0122 5.30955 58.0988 5.43139C63.7034 5.65476 67.1758 6.04059 67.1758 9.75667C67.1758 13.6758 63.9268 14.6708 58.0988 14.6708C52.2708 14.6708 49.0218 13.6758 49.0218 9.45207ZM67.5832 9.45207H72.8629C72.8629 10.1425 73.5127 10.6095 76.8632 10.6095C79.9904 10.6095 80.4575 10.4065 80.4575 9.87851C80.4575 9.26932 79.9904 9.18809 76.6602 9.08656C70.2433 8.88349 67.7863 7.82756 67.7863 4.5176C67.7863 1.3904 70.8525 0.050177 76.4571 0.050177C82.0008 0.050177 85.128 1.3904 85.128 5.02526H79.8483C79.8483 4.27392 78.6299 4.11147 76.051 4.11147C73.5736 4.11147 73.0659 4.23331 73.0659 4.78159C73.0659 5.32986 73.5736 5.30955 76.6602 5.43139C82.2648 5.65476 85.7372 6.04059 85.7372 9.75667C85.7372 13.6758 82.4881 14.6708 76.6602 14.6708C70.8322 14.6708 67.5832 13.6758 67.5832 9.45207ZM91.6273 0.253242V14.4678H86.3476V0.253242H91.6273Z" fill="white"/>
</g>
<rect x="0.146484" y="0.000213623" width="9.82326" height="28.3783" fill="#4BFFA5"/>
<rect x="30.7078" y="20.7381" width="9.82326" height="30.5612" transform="rotate(90 30.7078 20.7381)" fill="#4BFFA5"/>
<defs>
<clipPath id="clip0_0_107">
<rect width="168.203" height="29.9033" fill="white" transform="translate(12.1465 0.467773)"/>
</clipPath>
</defs>
</svg>
