<svg width="22" height="22" viewBox="0 0 22 22" fill="none" xmlns="http://www.w3.org/2000/svg">
<path d="M0.588867 21.3401L2.06499 15.9475C1.15412 14.369 0.675492 12.5796 0.676367 10.7447C0.678992 5.00821 5.34711 0.340088 11.0827 0.340088C13.8661 0.340963 16.4788 1.42509 18.4441 3.39209C20.4084 5.35909 21.4899 7.97359 21.4891 10.7543C21.4864 16.4917 16.8183 21.1598 11.0827 21.1598C9.34147 21.159 7.6256 20.7223 6.10573 19.8928L0.588867 21.3401ZM6.36123 18.009C7.82773 18.8796 9.22772 19.4011 11.0792 19.402C15.8462 19.402 19.7295 15.5222 19.7321 10.7526C19.7338 5.97334 15.869 2.09884 11.0862 2.09709C6.31573 2.09709 2.43511 5.97684 2.43336 10.7456C2.43249 12.6925 3.00299 14.1502 3.96111 15.6753L3.08699 18.8673L6.36123 18.009ZM16.3248 13.228C16.2601 13.1195 16.0868 13.0547 15.8261 12.9243C15.5662 12.794 14.2878 12.1648 14.049 12.0782C13.811 11.9916 13.6377 11.9478 13.4636 12.2086C13.2903 12.4685 12.7916 13.0547 12.6402 13.228C12.4888 13.4012 12.3366 13.4231 12.0767 13.2927C11.8168 13.1623 10.9786 12.8885 9.98547 12.0021C9.21285 11.3126 8.69047 10.4612 8.5391 10.2005C8.38772 9.94059 8.52335 9.79971 8.65285 9.67021C8.7701 9.55384 8.91272 9.36659 9.0431 9.21434C9.17522 9.06384 9.2181 8.95534 9.3056 8.78121C9.39222 8.60796 9.34935 8.45571 9.28372 8.32534C9.2181 8.19584 8.69835 6.91571 8.48222 6.39509C8.27048 5.88846 8.0561 5.95671 7.89685 5.94884L7.3981 5.94009C7.22485 5.94009 6.9431 6.00484 6.7051 6.26559C6.4671 6.52634 5.79511 7.15459 5.79511 8.43471C5.79511 9.71484 6.72698 10.9512 6.85648 11.1245C6.98685 11.2977 8.6896 13.9245 11.298 15.0506C11.9183 15.3183 12.4031 15.4785 12.7802 15.5983C13.4032 15.7961 13.9702 15.7681 14.4182 15.7016C14.9178 15.6272 15.9565 15.0725 16.1735 14.4652C16.3905 13.8571 16.3905 13.3365 16.3248 13.228Z" fill="white"/>
</svg>
